<svg xmlns="http://www.w3.org/2000/svg" xmlns:xlink="http://www.w3.org/1999/xlink" width="1920" zoomAndPan="magnify" viewBox="0 0 1440 809.999993" height="1080" preserveAspectRatio="xMidYMid meet" version="1.0"><defs><clipPath id="8c84903844"><path d="M 221.539062 0 L 1218.289062 0 L 1218.289062 810 L 221.539062 810 Z M 221.539062 0 " clip-rule="nonzero"/></clipPath></defs><rect x="-144" width="1728" fill="#ffffff" y="-80.999999" height="971.999992" fill-opacity="1"/><rect x="-144" width="1728" fill="#ffffff" y="-80.999999" height="971.999992" fill-opacity="1"/><g clip-path="url(#8c84903844)"><path fill="#ffffff" d="M 1209.84375 546.832031 L 1054.074219 468.949219 C 1049.695312 466.757812 1044.523438 466.757812 1040.140625 468.949219 L 953.648438 512.195312 L 891.339844 481.042969 L 891.339844 327.117188 C 891.339844 321.214844 888.007812 315.828125 882.730469 313.183594 L 726.960938 235.296875 C 722.582031 233.109375 717.410156 233.109375 713.027344 235.296875 L 626.535156 278.546875 L 564.226562 247.390625 L 564.226562 93.464844 C 564.226562 87.5625 560.898438 82.175781 555.617188 79.53125 L 399.851562 1.648438 C 395.46875 -0.542969 390.296875 -0.542969 385.917969 1.648438 L 230.148438 79.53125 C 224.871094 82.175781 221.539062 87.5625 221.539062 93.464844 L 221.539062 249.230469 C 221.539062 255.132812 224.871094 260.519531 230.148438 263.167969 L 385.914062 341.050781 C 388.105469 342.144531 390.496094 342.691406 392.882812 342.691406 C 395.269531 342.691406 397.660156 342.144531 399.851562 341.050781 L 540.863281 270.542969 L 591.699219 295.960938 L 557.261719 313.183594 C 551.980469 315.828125 548.652344 321.214844 548.652344 327.117188 L 548.652344 482.882812 C 548.652344 488.785156 551.980469 494.171875 557.261719 496.816406 L 713.027344 574.703125 C 715.21875 575.796875 717.605469 576.34375 719.996094 576.34375 C 722.382812 576.34375 724.773438 575.796875 726.960938 574.703125 L 867.976562 504.195312 L 918.8125 529.613281 L 884.371094 546.832031 C 879.09375 549.480469 875.761719 554.867188 875.761719 560.769531 L 875.761719 716.535156 C 875.761719 722.4375 879.09375 727.824219 884.371094 730.46875 L 1040.140625 808.351562 C 1042.332031 809.449219 1044.71875 809.996094 1047.109375 809.996094 C 1049.496094 809.996094 1051.882812 809.449219 1054.074219 808.351562 L 1209.84375 730.46875 C 1215.121094 727.824219 1218.453125 722.4375 1218.453125 716.535156 L 1218.453125 560.769531 C 1218.453125 554.867188 1215.121094 549.480469 1209.84375 546.832031 Z M 392.882812 32.996094 L 513.816406 93.464844 L 392.882812 153.929688 L 271.949219 93.464844 Z M 252.691406 118.671875 L 377.304688 180.976562 L 377.304688 301.910156 L 252.691406 239.601562 Z M 408.460938 301.910156 L 408.460938 180.976562 L 533.074219 118.671875 L 533.074219 231.816406 L 477.734375 204.144531 C 470.035156 200.3125 460.695312 203.414062 456.832031 211.113281 C 452.984375 218.808594 456.101562 228.164062 463.800781 232.011719 L 506.027344 253.125 Z M 719.996094 266.648438 L 840.929688 327.117188 L 719.996094 387.582031 L 599.0625 327.117188 Z M 579.804688 352.320312 L 704.417969 414.628906 L 704.417969 535.5625 L 579.804688 473.253906 Z M 735.570312 535.5625 L 735.570312 414.628906 L 860.1875 352.320312 L 860.1875 465.464844 L 804.847656 437.796875 C 797.148438 433.976562 787.808594 437.066406 783.945312 444.761719 C 780.097656 452.460938 783.214844 461.816406 790.914062 465.664062 L 833.140625 486.777344 L 735.574219 535.5625 Z M 1047.109375 500.300781 L 1168.039062 560.769531 L 1047.109375 621.234375 L 926.175781 560.769531 Z M 906.917969 585.972656 L 1031.53125 648.28125 L 1031.53125 769.214844 L 906.917969 706.90625 Z M 1062.683594 769.214844 L 1062.683594 648.28125 L 1187.300781 585.972656 L 1187.300781 706.90625 Z M 1062.683594 769.214844 " fill-opacity="1" fill-rule="nonzero"/></g></svg>